<svg width="28" height="28" viewBox="0 0 28 28" fill="none" xmlns="http://www.w3.org/2000/svg">
<rect width="28" height="28" rx="14" fill="#F2F2F2"/>
<path d="M11.2119 20.1882C16.8725 20.1882 19.9691 15.4978 19.9691 11.4375C19.9691 11.3063 19.9691 11.1732 19.9634 11.0419C20.5663 10.6055 21.0866 10.0652 21.5 9.44628C20.9369 9.69457 20.3401 9.85822 19.7291 9.9319C20.3727 9.54719 20.8547 8.94187 21.0856 8.22846C20.4809 8.5867 19.8191 8.83819 19.1291 8.9719C18.6652 8.47786 18.0513 8.15057 17.3826 8.04073C16.7138 7.9309 16.0276 8.04464 15.43 8.36434C14.8325 8.68404 14.357 9.19186 14.0773 9.80914C13.7976 10.4264 13.7292 11.1187 13.8828 11.7788C12.6591 11.7174 11.462 11.3995 10.3691 10.8457C9.27619 10.2919 8.31189 9.51457 7.53875 8.56409C7.14626 9.24198 7.02648 10.0438 7.20373 10.8068C7.38099 11.5698 7.84199 12.2368 8.49313 12.6722C8.00519 12.6556 7.52799 12.5246 7.1 12.2897V12.3319C7.10084 13.042 7.34685 13.7301 7.79644 14.2798C8.24604 14.8295 8.87164 15.2071 9.5675 15.3488C9.30337 15.4215 9.03053 15.4578 8.75656 15.4566C8.56342 15.4572 8.37067 15.4393 8.18094 15.4032C8.37761 16.0145 8.76057 16.5489 9.27617 16.9317C9.79177 17.3145 10.4142 17.5264 11.0563 17.5378C9.96552 18.3945 8.61819 18.8592 7.23125 18.8569C6.98686 18.8579 6.74265 18.8438 6.5 18.8147C7.90767 19.7121 9.54247 20.1887 11.2119 20.1882Z" fill="#027298"/>
</svg>
