<svg width="28" height="28" viewBox="0 0 28 28" fill="none" xmlns="http://www.w3.org/2000/svg">
<rect width="28" height="28" rx="14" fill="#F2F2F2"/>
<path d="M9.54938 12.7008L7.69056 14.5596C6.92826 15.3219 6.5 16.3558 6.5 17.4339C6.5 18.5119 6.92826 19.5458 7.69056 20.3081C8.45286 21.0704 9.48677 21.4987 10.5648 21.4987C11.6429 21.4987 12.6768 21.0704 13.4391 20.3081L15.9157 17.8302C16.3754 17.3704 16.7181 16.8071 16.915 16.1875C17.112 15.5679 17.1574 14.9101 17.0475 14.2693C16.9376 13.6285 16.6756 13.0235 16.2835 12.5049C15.8913 11.9863 15.3805 11.5694 14.7939 11.2891L14 12.083C13.9194 12.1637 13.8493 12.2543 13.7913 12.3526C14.2446 12.4829 14.6559 12.7292 14.9848 13.0672C15.3137 13.4052 15.5486 13.8232 15.6664 14.2798C15.7842 14.7364 15.7809 15.2159 15.6566 15.6708C15.5323 16.1257 15.2915 16.5403 14.9579 16.8737L12.4826 19.3503C11.9741 19.8587 11.2845 20.1444 10.5655 20.1444C9.84646 20.1444 9.15686 19.8587 8.64842 19.3503C8.13998 18.8418 7.85434 18.1522 7.85434 17.4332C7.85434 16.7142 8.13998 16.0246 8.64842 15.5161L9.7228 14.4431C9.57122 13.8751 9.51265 13.2862 9.54938 12.6994V12.7008Z" fill="#027298"/>
<path d="M12.0843 10.1672C11.6246 10.6269 11.2819 11.1903 11.085 11.8098C10.8881 12.4294 10.8426 13.0872 10.9525 13.728C11.0624 14.3688 11.3244 14.9739 11.7166 15.4925C12.1087 16.011 12.6195 16.428 13.2061 16.7083L14.2561 15.6569C13.7967 15.5337 13.3779 15.2918 13.0417 14.9554C12.7054 14.6191 12.4637 14.2001 12.3406 13.7407C12.2176 13.2813 12.2177 12.7976 12.3408 12.3382C12.464 11.8788 12.7058 11.46 13.0422 11.1237L15.5174 8.64707C16.0259 8.13863 16.7155 7.85299 17.4345 7.85299C18.1536 7.85299 18.8431 8.13863 19.3516 8.64707C19.86 9.15551 20.1457 9.8451 20.1457 10.5641C20.1457 11.2832 19.86 11.9728 19.3516 12.4812L18.2772 13.5543C18.4289 14.1233 18.4872 14.7126 18.4506 15.2979L20.3094 13.4391C21.0717 12.6768 21.5 11.6429 21.5 10.5648C21.5 9.48677 21.0717 8.45286 20.3094 7.69056C19.5471 6.92826 18.5132 6.5 17.4352 6.5C16.3571 6.5 15.3232 6.92826 14.5609 7.69056L12.0843 10.1672Z" fill="#027298"/>
</svg>
