<svg width="28" height="28" viewBox="0 0 28 28" fill="none" xmlns="http://www.w3.org/2000/svg">
<rect width="28" height="28" rx="14" fill="#F2F2F2"/>
<path d="M6.54688 9.45781C6.64139 9.04367 6.87374 8.67389 7.20586 8.40904C7.53799 8.14419 7.9502 7.99997 8.375 8H19.625C20.0498 7.99997 20.462 8.14419 20.7941 8.40904C21.1263 8.67389 21.3586 9.04367 21.4531 9.45781L14 14.0131L6.54688 9.45781ZM6.5 10.5284V17.1884L11.9403 13.8528L6.5 10.5284ZM12.8384 14.4031L6.67906 18.1784C6.83124 18.4993 7.07143 18.7704 7.37167 18.9601C7.67191 19.1498 8.01985 19.2503 8.375 19.25H19.625C19.9801 19.2501 20.3279 19.1493 20.628 18.9595C20.928 18.7696 21.168 18.4984 21.32 18.1775L15.1606 14.4022L14 15.1119L12.8384 14.4022V14.4031ZM16.0597 13.8538L21.5 17.1884V10.5284L16.0597 13.8528V13.8538Z" fill="#027298"/>
</svg>
