<svg width="28" height="28" viewBox="0 0 28 28" fill="none" xmlns="http://www.w3.org/2000/svg">
<rect width="28" height="28" rx="14" fill="#F2F2F2"/>
<path d="M14.0483 8H14.1317C14.9024 8.00281 18.8073 8.03094 19.8602 8.31408C20.1785 8.4005 20.4685 8.56893 20.7014 8.80256C20.9342 9.03618 21.1016 9.32682 21.1869 9.64542C21.2815 10.0017 21.3481 10.4733 21.3931 10.9599L21.4025 11.0574L21.4231 11.3011L21.4306 11.3986C21.4916 12.2556 21.4991 13.0581 21.5 13.2335V13.3038C21.4991 13.4857 21.4906 14.3426 21.4231 15.2351L21.4156 15.3336L21.4072 15.4311C21.3603 15.9674 21.2909 16.4999 21.1869 16.8918C21.1018 17.2105 20.9345 17.5013 20.7017 17.735C20.4688 17.9686 20.1786 18.137 19.8602 18.2231C18.7726 18.5157 14.6389 18.5363 14.0661 18.5372H13.933C13.6433 18.5372 12.4451 18.5316 11.1887 18.4885L11.0293 18.4828L10.9478 18.4791L10.7875 18.4725L10.6271 18.466C9.58644 18.42 8.59544 18.346 8.13885 18.2222C7.82054 18.1361 7.53044 17.9679 7.2976 17.7344C7.06477 17.5009 6.89738 17.2104 6.81221 16.8918C6.70814 16.5008 6.63876 15.9674 6.59188 15.4311L6.58438 15.3326L6.57688 15.2351C6.53061 14.5998 6.50497 13.9632 6.5 13.3263L6.5 13.2109C6.50188 13.0094 6.50938 12.3128 6.56 11.544L6.56657 11.4474L6.56938 11.3986L6.57688 11.3011L6.59751 11.0574L6.60688 10.9599C6.65188 10.4733 6.71845 10.0007 6.81314 9.64542C6.89818 9.32669 7.0655 9.03592 7.29834 8.80225C7.53119 8.56859 7.82137 8.40024 8.13979 8.31408C8.59638 8.1922 9.58738 8.11719 10.6281 8.07032L10.7875 8.06375L10.9487 8.05813L11.0293 8.05532L11.1897 8.04875C12.082 8.02004 12.9746 8.0041 13.8673 8.00094H14.0483V8ZM12.5004 11.0096V15.5267L16.3978 13.2691L12.5004 11.0096Z" fill="#027298"/>
</svg>
