<svg width="28" height="28" viewBox="0 0 28 28" fill="none" xmlns="http://www.w3.org/2000/svg">
<rect width="28" height="28" rx="14" fill="#F2F2F2"/>
<path d="M14 6.5C11.9647 6.5 11.7088 6.50938 10.9091 6.545C10.1094 6.5825 9.56469 6.70812 9.0875 6.89375C8.58696 7.08202 8.13359 7.37734 7.75906 7.75906C7.37757 8.13378 7.08229 8.5871 6.89375 9.0875C6.70812 9.56375 6.58156 10.1094 6.545 10.9062C6.50938 11.7078 6.5 11.9628 6.5 14.0009C6.5 16.0372 6.50938 16.2922 6.545 17.0919C6.5825 17.8906 6.70812 18.4353 6.89375 18.9125C7.08594 19.4056 7.34188 19.8238 7.75906 20.2409C8.17531 20.6581 8.59344 20.915 9.08656 21.1063C9.56469 21.2919 10.1084 21.4184 10.9072 21.455C11.7078 21.4906 11.9628 21.5 14 21.5C16.0372 21.5 16.2913 21.4906 17.0919 21.455C17.8897 21.4175 18.4363 21.2919 18.9134 21.1063C19.4137 20.9179 19.8667 20.6226 20.2409 20.2409C20.6581 19.8238 20.9141 19.4056 21.1063 18.9125C21.2909 18.4353 21.4175 17.8906 21.455 17.0919C21.4906 16.2922 21.5 16.0372 21.5 14C21.5 11.9628 21.4906 11.7078 21.455 10.9072C21.4175 10.1094 21.2909 9.56375 21.1063 9.0875C20.9177 8.58709 20.6225 8.13376 20.2409 7.75906C19.8665 7.3772 19.4131 7.08186 18.9125 6.89375C18.4344 6.70812 17.8888 6.58156 17.0909 6.545C16.2903 6.50938 16.0363 6.5 13.9981 6.5H14.0009H14ZM13.3278 7.85188H14.0009C16.0034 7.85188 16.2406 7.85844 17.0309 7.895C17.7622 7.92781 18.1597 8.05063 18.4241 8.15281C18.7738 8.28875 19.0241 8.45188 19.2866 8.71438C19.5491 8.97688 19.7113 9.22625 19.8472 9.57688C19.9503 9.84031 20.0722 10.2378 20.105 10.9691C20.1416 11.7594 20.1491 11.9966 20.1491 13.9981C20.1491 15.9997 20.1416 16.2378 20.105 17.0281C20.0722 17.7594 19.9494 18.1559 19.8472 18.4203C19.7269 18.746 19.535 19.0404 19.2856 19.2819C19.0231 19.5444 18.7738 19.7066 18.4231 19.8425C18.1606 19.9456 17.7631 20.0675 17.0309 20.1013C16.2406 20.1369 16.0034 20.1453 14.0009 20.1453C11.9984 20.1453 11.7603 20.1369 10.97 20.1013C10.2388 20.0675 9.84219 19.9456 9.57781 19.8425C9.25203 19.7224 8.95731 19.5309 8.71531 19.2819C8.4657 19.04 8.27349 18.7453 8.15281 18.4194C8.05063 18.1559 7.92781 17.7584 7.895 17.0272C7.85938 16.2369 7.85188 15.9997 7.85188 13.9963C7.85188 11.9938 7.85938 11.7575 7.895 10.9672C7.92875 10.2359 8.05063 9.83844 8.15375 9.57406C8.28969 9.22438 8.45281 8.97406 8.71531 8.71156C8.97781 8.44906 9.22719 8.28688 9.57781 8.15094C9.84219 8.04781 10.2388 7.92594 10.97 7.89219C11.6619 7.86031 11.93 7.85094 13.3278 7.85V7.85188ZM18.0041 9.09688C17.8859 9.09688 17.7688 9.12015 17.6596 9.16538C17.5505 9.21061 17.4512 9.27691 17.3677 9.36048C17.2841 9.44405 17.2178 9.54327 17.1726 9.65246C17.1273 9.76165 17.1041 9.87869 17.1041 9.99688C17.1041 10.1151 17.1273 10.2321 17.1726 10.3413C17.2178 10.4505 17.2841 10.5497 17.3677 10.6333C17.4512 10.7168 17.5505 10.7831 17.6596 10.8284C17.7688 10.8736 17.8859 10.8969 18.0041 10.8969C18.2428 10.8969 18.4717 10.8021 18.6405 10.6333C18.8092 10.4645 18.9041 10.2356 18.9041 9.99688C18.9041 9.75818 18.8092 9.52926 18.6405 9.36048C18.4717 9.1917 18.2428 9.09688 18.0041 9.09688ZM14.0009 10.1488C13.4901 10.1408 12.9827 10.2345 12.5084 10.4245C12.0341 10.6145 11.6024 10.8969 11.2383 11.2554C10.8742 11.6139 10.585 12.0412 10.3877 12.5124C10.1903 12.9837 10.0887 13.4895 10.0887 14.0005C10.0887 14.5114 10.1903 15.0172 10.3877 15.4885C10.585 15.9598 10.8742 16.3871 11.2383 16.7455C11.6024 17.104 12.0341 17.3864 12.5084 17.5764C12.9827 17.7664 13.4901 17.8602 14.0009 17.8522C15.0121 17.8364 15.9764 17.4237 16.6859 16.703C17.3954 15.9824 17.793 15.0117 17.793 14.0005C17.793 12.9892 17.3954 12.0185 16.6859 11.2979C15.9764 10.5773 15.0121 10.1645 14.0009 10.1488ZM14.0009 11.4997C14.6641 11.4997 15.3 11.7631 15.7689 12.232C16.2378 12.7009 16.5013 13.3369 16.5013 14C16.5013 14.6631 16.2378 15.2991 15.7689 15.768C15.3 16.2369 14.6641 16.5003 14.0009 16.5003C13.3378 16.5003 12.7018 16.2369 12.2329 15.768C11.7641 15.2991 11.5006 14.6631 11.5006 14C11.5006 13.3369 11.7641 12.7009 12.2329 12.232C12.7018 11.7631 13.3378 11.4997 14.0009 11.4997Z" fill="#027298"/>
</svg>
