<svg width="14" height="15" viewBox="0 0 14 15" fill="none" xmlns="http://www.w3.org/2000/svg">
<path d="M6.99996 3.75001C6.99996 3.6395 6.95606 3.53352 6.87792 3.45538C6.79978 3.37724 6.6938 3.33334 6.58329 3.33334C6.47279 3.33334 6.36681 3.37724 6.28866 3.45538C6.21052 3.53352 6.16663 3.6395 6.16663 3.75001V8.33334C6.16665 8.40679 6.18609 8.47892 6.22296 8.54243C6.25984 8.60595 6.31285 8.65858 6.37663 8.69501L9.29329 10.3617C9.38901 10.4134 9.50116 10.4256 9.60578 10.3958C9.7104 10.3659 9.79919 10.2963 9.85317 10.2018C9.90715 10.1074 9.92204 9.99555 9.89465 9.89025C9.86727 9.78495 9.79979 9.69454 9.70663 9.63834L6.99996 8.09168V3.75001Z" fill="#999999"/>
<path d="M6.99998 14.1667C8.76809 14.1667 10.4638 13.4643 11.714 12.2141C12.9643 10.9638 13.6666 9.26812 13.6666 7.50001C13.6666 5.7319 12.9643 4.03621 11.714 2.78597C10.4638 1.53572 8.76809 0.833344 6.99998 0.833344C5.23187 0.833344 3.53618 1.53572 2.28593 2.78597C1.03569 4.03621 0.333313 5.7319 0.333313 7.50001C0.333313 9.26812 1.03569 10.9638 2.28593 12.2141C3.53618 13.4643 5.23187 14.1667 6.99998 14.1667V14.1667ZM12.8333 7.50001C12.8333 9.04711 12.2187 10.5308 11.1248 11.6248C10.0308 12.7188 8.54708 13.3333 6.99998 13.3333C5.45288 13.3333 3.96915 12.7188 2.87519 11.6248C1.78123 10.5308 1.16665 9.04711 1.16665 7.50001C1.16665 5.95291 1.78123 4.46918 2.87519 3.37522C3.96915 2.28126 5.45288 1.66668 6.99998 1.66668C8.54708 1.66668 10.0308 2.28126 11.1248 3.37522C12.2187 4.46918 12.8333 5.95291 12.8333 7.50001V7.50001Z" fill="#999999"/>
</svg>
