<svg width="24" height="25" viewBox="0 0 24 25" fill="none" xmlns="http://www.w3.org/2000/svg">
<path d="M4.5 2.5C3.83696 2.5 3.20107 2.76339 2.73223 3.23223C2.26339 3.70107 2 4.33696 2 5L2 20C2 20.663 2.26339 21.2989 2.73223 21.7678C3.20107 22.2366 3.83696 22.5 4.5 22.5H19.5C20.163 22.5 20.7989 22.2366 21.2678 21.7678C21.7366 21.2989 22 20.663 22 20V5C22 4.33696 21.7366 3.70107 21.2678 3.23223C20.7989 2.76339 20.163 2.5 19.5 2.5H4.5ZM6.375 5.625C13.2787 5.625 18.875 11.2213 18.875 18.125C18.875 18.4565 18.7433 18.7745 18.5089 19.0089C18.2745 19.2433 17.9565 19.375 17.625 19.375C17.2935 19.375 16.9755 19.2433 16.7411 19.0089C16.5067 18.7745 16.375 18.4565 16.375 18.125C16.375 15.4728 15.3214 12.9293 13.4461 11.0539C11.5707 9.17857 9.02716 8.125 6.375 8.125C6.04348 8.125 5.72554 7.9933 5.49112 7.75888C5.2567 7.52446 5.125 7.20652 5.125 6.875C5.125 6.54348 5.2567 6.22554 5.49112 5.99112C5.72554 5.7567 6.04348 5.625 6.375 5.625ZM6.375 10.625C8.36412 10.625 10.2718 11.4152 11.6783 12.8217C13.0848 14.2282 13.875 16.1359 13.875 18.125C13.875 18.4565 13.7433 18.7745 13.5089 19.0089C13.2745 19.2433 12.9565 19.375 12.625 19.375C12.2935 19.375 11.9755 19.2433 11.7411 19.0089C11.5067 18.7745 11.375 18.4565 11.375 18.125C11.375 16.7989 10.8482 15.5271 9.91053 14.5895C8.97285 13.6518 7.70108 13.125 6.375 13.125C6.04348 13.125 5.72554 12.9933 5.49112 12.7589C5.2567 12.5245 5.125 12.2065 5.125 11.875C5.125 11.5435 5.2567 11.2255 5.49112 10.9911C5.72554 10.7567 6.04348 10.625 6.375 10.625ZM7 19.375C6.50272 19.375 6.02581 19.1775 5.67417 18.8258C5.32254 18.4742 5.125 17.9973 5.125 17.5C5.125 17.0027 5.32254 16.5258 5.67417 16.1742C6.02581 15.8225 6.50272 15.625 7 15.625C7.49728 15.625 7.97419 15.8225 8.32583 16.1742C8.67746 16.5258 8.875 17.0027 8.875 17.5C8.875 17.9973 8.67746 18.4742 8.32583 18.8258C7.97419 19.1775 7.49728 19.375 7 19.375Z" fill="#FF993A"/>
</svg>
