<svg width="16" height="16" viewBox="0 0 16 16" fill="none" xmlns="http://www.w3.org/2000/svg">
<path d="M14.3908 7.52488L8.33271 1.47125C8.28909 1.42754 8.23728 1.39287 8.18024 1.36921C8.12321 1.34555 8.06206 1.33337 8.00032 1.33337C7.93857 1.33337 7.87743 1.34555 7.82039 1.36921C7.76336 1.39287 7.71154 1.42754 7.66793 1.47125L1.60988 7.52488C1.43339 7.70137 1.33337 7.94111 1.33337 8.19113C1.33337 8.71031 1.75548 9.13242 2.27466 9.13242H2.91297V13.452C2.91297 13.7124 3.12329 13.9227 3.38361 13.9227H7.05903V10.6282H8.70628V13.9227H12.617C12.8773 13.9227 13.0877 13.7124 13.0877 13.452V9.13242H13.726C13.976 9.13242 14.2157 9.03388 14.3922 8.85592C14.7584 8.48823 14.7584 7.89257 14.3908 7.52488Z" fill="white"/>
</svg>
