<svg width="12" height="12" viewBox="0 0 12 12" fill="none" xmlns="http://www.w3.org/2000/svg">
<path d="M3.03292 5.13387L1.79371 6.37309C1.2855 6.88129 1 7.57056 1 8.28926C1 9.00797 1.2855 9.69724 1.79371 10.2054C2.30191 10.7136 2.99118 10.9991 3.70988 10.9991C4.42859 10.9991 5.11786 10.7136 5.62606 10.2054L7.27714 8.55345C7.5836 8.24695 7.81206 7.87141 7.94335 7.45834C8.07464 7.04528 8.10492 6.60675 8.03166 6.17956C7.95839 5.75237 7.78372 5.34899 7.52231 5.00327C7.26089 4.65755 6.92035 4.37959 6.52928 4.19272L5.99999 4.722C5.94626 4.77583 5.89953 4.83622 5.8609 4.90174C6.16305 4.98861 6.4373 5.15282 6.65654 5.37815C6.87577 5.60349 7.03241 5.88214 7.11095 6.18655C7.1895 6.49097 7.18723 6.81062 7.10439 7.1139C7.02154 7.41717 6.86098 7.69358 6.63857 7.91578L4.98839 9.56686C4.64943 9.90582 4.1897 10.0963 3.71034 10.0963C3.23097 10.0963 2.77124 9.90582 2.43228 9.56686C2.09332 9.2279 1.90289 8.76817 1.90289 8.28881C1.90289 7.80945 2.09332 7.34972 2.43228 7.01076L3.14853 6.29541C3.04748 5.91671 3.00843 5.52415 3.03292 5.13297V5.13387Z" fill="#027298"/>
<path d="M4.72289 3.44479C4.41643 3.75129 4.18797 4.12683 4.05668 4.5399C3.92539 4.95296 3.89511 5.3915 3.96837 5.81869C4.04164 6.24588 4.21631 6.64926 4.47772 6.99498C4.73914 7.34069 5.07968 7.61865 5.47075 7.80553L6.17074 7.10463C5.86451 7.02249 5.58528 6.86119 5.36113 6.63695C5.13698 6.4127 4.9758 6.13341 4.89378 5.82714C4.81177 5.52087 4.81181 5.1984 4.8939 4.89215C4.976 4.5859 5.13725 4.30665 5.36146 4.08246L7.01164 2.43138C7.3506 2.09242 7.81033 1.90199 8.28969 1.90199C8.76905 1.90199 9.22878 2.09242 9.56774 2.43138C9.9067 2.77034 10.0971 3.23007 10.0971 3.70943C10.0971 4.1888 9.9067 4.64853 9.56774 4.98749L8.85149 5.70284C8.95265 6.08219 8.99149 6.47509 8.9671 6.86528L10.2063 5.62606C10.7145 5.11786 11 4.42859 11 3.70988C11 2.99118 10.7145 2.30191 10.2063 1.79371C9.69812 1.2855 9.00885 1 8.29014 1C7.57144 1 6.88217 1.2855 6.37397 1.79371L4.72289 3.44479Z" fill="#027298"/>
</svg>
