<svg width="16" height="17" viewBox="0 0 16 17" fill="none" xmlns="http://www.w3.org/2000/svg">
<path d="M7.99996 4.75001C7.99996 4.6395 7.95606 4.53352 7.87792 4.45538C7.79978 4.37724 7.6938 4.33334 7.58329 4.33334C7.47279 4.33334 7.36681 4.37724 7.28866 4.45538C7.21052 4.53352 7.16663 4.6395 7.16663 4.75001V9.33334C7.16665 9.40679 7.18609 9.47892 7.22296 9.54243C7.25984 9.60595 7.31285 9.65858 7.37663 9.69501L10.2933 11.3617C10.389 11.4134 10.5012 11.4256 10.6058 11.3958C10.7104 11.3659 10.7992 11.2963 10.8532 11.2018C10.9071 11.1074 10.922 10.9955 10.8947 10.8903C10.8673 10.785 10.7998 10.6945 10.7066 10.6383L7.99996 9.09168V4.75001Z" fill="#999999"/>
<path d="M7.99998 15.1667C9.76809 15.1667 11.4638 14.4643 12.714 13.2141C13.9643 11.9638 14.6666 10.2681 14.6666 8.50001C14.6666 6.7319 13.9643 5.03621 12.714 3.78597C11.4638 2.53572 9.76809 1.83334 7.99998 1.83334C6.23187 1.83334 4.53618 2.53572 3.28593 3.78597C2.03569 5.03621 1.33331 6.7319 1.33331 8.50001C1.33331 10.2681 2.03569 11.9638 3.28593 13.2141C4.53618 14.4643 6.23187 15.1667 7.99998 15.1667ZM13.8333 8.50001C13.8333 10.0471 13.2187 11.5308 12.1248 12.6248C11.0308 13.7188 9.54708 14.3333 7.99998 14.3333C6.45288 14.3333 4.96915 13.7188 3.87519 12.6248C2.78123 11.5308 2.16665 10.0471 2.16665 8.50001C2.16665 6.95291 2.78123 5.46918 3.87519 4.37522C4.96915 3.28126 6.45288 2.66668 7.99998 2.66668C9.54708 2.66668 11.0308 3.28126 12.1248 4.37522C13.2187 5.46918 13.8333 6.95291 13.8333 8.50001Z" fill="#999999"/>
</svg>
