<svg width="18" height="18" viewBox="0 0 18 18" fill="none" xmlns="http://www.w3.org/2000/svg">
<path d="M1.54688 4.45781C1.64139 4.04367 1.87374 3.67389 2.20586 3.40904C2.53799 3.14419 2.9502 2.99997 3.375 3H14.625C15.0498 2.99997 15.462 3.14419 15.7941 3.40904C16.1263 3.67389 16.3586 4.04367 16.4531 4.45781L9 9.01312L1.54688 4.45781ZM1.5 5.52844V12.1884L6.94031 8.85281L1.5 5.52844ZM7.83844 9.40312L1.67906 13.1784C1.83124 13.4993 2.07143 13.7704 2.37167 13.9601C2.67191 14.1498 3.01985 14.2503 3.375 14.25H14.625C14.9801 14.2501 15.3279 14.1493 15.628 13.9595C15.928 13.7696 16.168 13.4984 16.32 13.1775L10.1606 9.40219L9 10.1119L7.83844 9.40219V9.40312ZM11.0597 8.85375L16.5 12.1884V5.52844L11.0597 8.85281V8.85375Z" fill="#027298"/>
</svg>
