<svg width="6" height="4" viewBox="0 0 6 4" fill="none" xmlns="http://www.w3.org/2000/svg">
<path d="M2.62352 3.57L0.225521 0.829C-0.0574793 0.5065 0.172521 1.83853e-07 0.602021 1.83853e-07H5.39802C5.49414 -8.22297e-05 5.58825 0.0275439 5.66908 0.0795704C5.7499 0.131597 5.81402 0.205818 5.85375 0.293346C5.89347 0.380874 5.90713 0.477999 5.89308 0.573088C5.87903 0.668178 5.83787 0.757202 5.77452 0.8295L3.37652 3.5695C3.32959 3.6232 3.27171 3.66625 3.20678 3.69574C3.14184 3.72523 3.07134 3.74049 3.00002 3.74049C2.9287 3.74049 2.8582 3.72523 2.79327 3.69574C2.72833 3.66625 2.67045 3.6232 2.62352 3.5695V3.57Z" fill="white"/>
</svg>
